custom-analysis
version=1
nRows=4
nColumns=98
inDegrees=no

This file contains tibia displacement and acting force.

Units are S.I. units (seconds, meters, Newtons, ...)
Angles are in degrees.

endheader
time	APT	SIT	knee_angle	aACL_R_force	pACL_R_force	aPCL_R_force	pPCL_R_force	aMCL_R_force	mMCL_R_force	pMCL_R_force	aLCL_R_force	mLCL_R_force	pLCL_R_force	aPCL_L_force	pPCL_L_force	aMCL_L_force	aLCL_L_force	aACL_R_length	pACL_R_length	aPCL_R_length	pPCL_R_length	aMCL_R_length	mMCL_R_length	pMCL_R_length	aLCL_R_length	mLCL_R_length	pLCL_R_length	aPCL_L_length	pPCL_L_length	aMCL_L_length	aLCL_L_length	aACL_R_strain	pACL_R_strain	aPCL_R_strain	pPCL_R_strain	aMCL_R_strain	mMCL_R_strain	pMCL_R_strain	aLCL_R_strain	mLCL_R_strain	pLCL_R_strain	aPCL_L_strain	pPCL_L_strain	aMCL_L_strain	aLCL_L_strain	femur_lat_meniscii_r.femur_lat_r.force.X	femur_lat_meniscii_r.femur_lat_r.force.Y	femur_lat_meniscii_r.femur_lat_r.force.Z	femur_lat_meniscii_r.femur_lat_r.torque.X	femur_lat_meniscii_r.femur_lat_r.torque.Y	femur_lat_meniscii_r.femur_lat_r.torque.Z	femur_lat_meniscii_r.meniscus_lat_r.force.X	femur_lat_meniscii_r.meniscus_lat_r.force.Y	femur_lat_meniscii_r.meniscus_lat_r.force.Z	femur_lat_meniscii_r.meniscus_lat_r.torque.X	femur_lat_meniscii_r.meniscus_lat_r.torque.Y	femur_lat_meniscii_r.meniscus_lat_r.torque.Z	femur_med_meniscii_r.femur_med_r.force.X	femur_med_meniscii_r.femur_med_r.force.Y	femur_med_meniscii_r.femur_med_r.force.Z	femur_med_meniscii_r.femur_med_r.torque.X	femur_med_meniscii_r.femur_med_r.torque.Y	femur_med_meniscii_r.femur_med_r.torque.Z	femur_med_meniscii_r.meniscus_med_r.force.X	femur_med_meniscii_r.meniscus_med_r.force.Y	femur_med_meniscii_r.meniscus_med_r.force.Z	femur_med_meniscii_r.meniscus_med_r.torque.X	femur_med_meniscii_r.meniscus_med_r.torque.Y	femur_med_meniscii_r.meniscus_med_r.torque.Z	femur_med_tibia_r.tibia_upper_r.force.X	femur_med_tibia_r.tibia_upper_r.force.Y	femur_med_tibia_r.tibia_upper_r.force.Z	femur_med_tibia_r.tibia_upper_r.torque.X	femur_med_tibia_r.tibia_upper_r.torque.Y	femur_med_tibia_r.tibia_upper_r.torque.Z	femur_med_tibia_r.femur_med_r.force.X	femur_med_tibia_r.femur_med_r.force.Y	femur_med_tibia_r.femur_med_r.force.Z	femur_med_tibia_r.femur_med_r.torque.X	femur_med_tibia_r.femur_med_r.torque.Y	femur_med_tibia_r.femur_med_r.torque.Z	femur_lat_tibia_r.tibia_upper_r.force.X	femur_lat_tibia_r.tibia_upper_r.force.Y	femur_lat_tibia_r.tibia_upper_r.force.Z	femur_lat_tibia_r.tibia_upper_r.torque.X	femur_lat_tibia_r.tibia_upper_r.torque.Y	femur_lat_tibia_r.tibia_upper_r.torque.Z	femur_lat_tibia_r.femur_lat_r.force.X	femur_lat_tibia_r.femur_lat_r.force.Y	femur_lat_tibia_r.femur_lat_r.force.Z	femur_lat_tibia_r.femur_lat_r.torque.X	femur_lat_tibia_r.femur_lat_r.torque.Y	femur_lat_tibia_r.femur_lat_r.torque.Z	femur_lat_meniscii_force_r	femur_med_meniscii_force_r	femur_lat_tibia_force_r	femur_med_tibia_force_r
      0.20364175	      0.01360603	      0.02525713	     78.80822193	      0.00000000	      0.00000000	    942.36388928	    588.84625644	     28.43250174	      0.00000000	      0.00000000	      0.00000000	      0.00000000	      0.00000000	      0.00000000	      0.00000000	      0.00000001	      0.00000000	      0.03081295	      0.02412851	      0.03703894	      0.03382049	      0.06133137	      0.05979242	      0.05638094	      0.05051480	      0.04513773	      0.04017484	      0.01525851	      0.01651186	      0.06550154	      0.04489616	     -0.00621016	     -0.03712042	      0.19114257	      0.13158168	      0.02172965	     -0.00001806	     -0.03996485	     -0.09758261	     -0.19852887	     -0.23246530	      0.00000079	     -0.32847694	      0.00000060	     -0.00000086	     42.81376545	     28.16829159	      0.80783562	     -0.96114452	      0.98049653	     16.98392525	    -42.81376545	    -28.16829159	     -0.80783562	      0.71262019	     -1.10724504	      0.60696922	      0.38115567	     -0.00424017	     -0.11662154	      0.04635212	     -0.00625744	      0.15170898	     -0.38115567	      0.00424017	      0.11662154	     -0.00048998	      0.00842693	     -0.00189601	   -975.57017160	   -418.92730430	    313.74957064	     -9.55800886	     23.26254587	      1.59164553	    975.57017160	    418.92730430	   -313.74957064	    133.99969293	    -17.30336999	    393.30309909	   -307.20733497	   -155.07442749	    -83.20634703	      4.98379432	    -10.48935271	      1.16076679	    307.20733497	    155.07442749	     83.20634703	    -37.33149016	      7.51799634	    123.80843555	     51.25547543	      0.39862038	    354.04480070	   1107.10254227
      0.20419946	      0.01359109	      0.02536763	     79.11796282	      0.00000000	      0.00000000	    946.58542453	    591.78818407	     27.18410991	     11.17961655	      0.00000000	      0.00000000	      0.00000000	      0.00000000	      0.00000000	      0.00000000	      0.00000001	      0.00000000	      0.03081391	      0.02414407	      0.03706347	      0.03383932	      0.06135036	      0.05980140	      0.05639164	      0.05048222	      0.04510035	      0.04014202	      0.01525851	      0.01651186	      0.06550154	      0.04489616	     -0.00617908	     -0.03649958	      0.19193164	      0.13221171	      0.02204600	      0.00013207	     -0.03978279	     -0.09816466	     -0.19919258	     -0.23309238	      0.00000079	     -0.32847694	      0.00000060	     -0.00000086	     42.87587351	     28.65987912	      0.72378453	     -0.93871198	      0.98126977	     16.99949764	    -42.87587351	    -28.65987912	     -0.72378453	      0.72497686	     -1.10687818	      0.63558736	      0.34110325	     -0.00104540	     -0.10896644	      0.04333124	     -0.00556145	      0.13571552	     -0.34110325	      0.00104540	      0.10896644	     -0.00045992	      0.00762504	     -0.00153300	   -977.95362356	   -418.48213435	    314.56088308	     -9.48182209	     23.29522548	      1.75649763	    977.95362356	    418.48213435	   -314.56088308	    134.28627411	    -17.32145010	    394.20145854	   -313.55220090	   -158.13579275	    -84.79279997	      5.06711959	    -10.71327172	      1.25004905	    313.55220090	    158.13579275	     84.79279997	    -38.03767829	      7.67224074	    126.34199995	     51.57764113	      0.35808687	    361.26407317	   1109.26513322
      0.20475717	      0.01357579	      0.02547837	     79.42762394	      0.00000000	      0.00000000	    950.14689418	    592.76255683	     27.37184361	     11.18927963	      0.00000000	      0.00000000	      0.00000000	      0.00000000	      0.00000000	      0.00000000	      0.00000001	      0.00000000	      0.03081486	      0.02415967	      0.03708738	      0.03385760	      0.06136878	      0.05980996	      0.05640214	      0.05044918	      0.04506264	      0.04010901	      0.01525851	      0.01651186	      0.06550154	      0.04489616	     -0.00614854	     -0.03587706	      0.19270047	      0.13282349	      0.02235301	      0.00027534	     -0.03960397	     -0.09875480	     -0.19986218	     -0.23372290	      0.00000079	     -0.32847694	      0.00000060	     -0.00000086	     43.29043234	     28.12438483	      0.61195143	     -0.88154089	      0.98939847	     17.16953992	    -43.29043234	    -28.12438483	     -0.61195143	      0.71100715	     -1.11400565	      0.62105517	      0.32430267	     -0.00303349	     -0.10447775	      0.04151949	     -0.00529575	      0.12902363	     -0.32430267	      0.00303349	      0.10447775	     -0.00040729	      0.00728067	     -0.00146752	   -983.18040043	   -410.05551460	    316.79001041	     -9.33299599	     23.41059696	      1.57864273	    983.18040043	    410.05551460	   -316.79001041	    135.03868258	    -17.39168189	    396.34885638	   -320.26396284	   -156.24189525	    -86.52909003	      5.03630051	    -10.95179193	      1.13854778	    320.26396284	    156.24189525	     86.52909003	    -38.70132402	      7.83565248	    129.09008826	     51.62767707	      0.34073013	    366.69853987	   1111.37083619
      0.20577400	      0.01354694	      0.02567961	     79.99202699	      0.00000000	      0.00000000	    958.12466723	    599.13473541	     27.23971407	     11.50274292	      0.00000000	      0.00000000	      0.00000000	      0.00000000	      0.00000000	      0.00000000	      0.00000001	      0.00000000	      0.03081720	      0.02418890	      0.03713061	      0.03389076	      0.06140223	      0.05982582	      0.05642210	      0.05038917	      0.04499442	      0.04004976	      0.01525851	      0.01651186	      0.06550154	      0.04489616	     -0.00607296	     -0.03471046	      0.19409082	      0.13393300	      0.02291024	      0.00054059	     -0.03926399	     -0.09982696	     -0.20107359	     -0.23485482	      0.00000079	     -0.32847694	      0.00000060	     -0.00000086	     42.80147101	     28.79452973	      0.87071778	     -1.00282093	      0.98000841	     16.95608716	    -42.80147101	    -28.79452973	     -0.87071778	      0.73304592	     -1.11206396	      0.67217916	      0.27865856	     -0.00176197	     -0.09349274	      0.03716368	     -0.00455446	      0.11082185	     -0.27865856	      0.00176197	      0.09349274	     -0.00035210	      0.00635909	     -0.00113759	   -987.16219482	   -404.40801247	    320.39109714	     -9.16846557	     23.54737773	      1.70506330	    987.16219482	    404.40801247	   -320.39109714	    136.36039019	    -17.44486830	    397.89081912	   -328.79495092	   -157.46927396	    -87.88660353	      5.06248464	    -11.22784520	      1.18481111	    328.79495092	    157.46927396	     87.88660353	    -39.27115576	      8.03169934	    132.52081227	     51.59311013	      0.29392956	    375.00232942	   1113.86062618
